<mxfile host="app.diagrams.net" modified="2022-01-21T10:25:25.975Z" agent="5.0 (X11; Linux x86_64) AppleWebKit/537.36 (KHTML, like Gecko) Chrome/96.0.4664.137 Safari/537.36" etag="yR1JZYeDmoD8Tmi3Rm3k" version="16.4.3" type="github">
  <diagram id="P2cz6ALvrC-aT5AwIWP3" name="Page-1">
    <mxGraphModel dx="1422" dy="787" grid="1" gridSize="10" guides="1" tooltips="1" connect="1" arrows="1" fold="1" page="1" pageScale="1" pageWidth="827" pageHeight="1169" math="0" shadow="0">
      <root>
        <mxCell id="0" />
        <mxCell id="1" parent="0" />
        <mxCell id="m1kTsd8cJOKcklktA0y1-4" style="edgeStyle=orthogonalEdgeStyle;rounded=1;orthogonalLoop=1;jettySize=auto;html=1;entryX=0.5;entryY=0;entryDx=0;entryDy=0;entryPerimeter=0;shadow=1;" parent="1" source="m1kTsd8cJOKcklktA0y1-1" target="m1kTsd8cJOKcklktA0y1-3" edge="1">
          <mxGeometry relative="1" as="geometry" />
        </mxCell>
        <mxCell id="m1kTsd8cJOKcklktA0y1-1" value="Method 1" style="shape=hexagon;perimeter=hexagonPerimeter2;whiteSpace=wrap;html=1;fixedSize=1;rounded=1;shadow=1;" parent="1" vertex="1">
          <mxGeometry x="260" y="40" width="120" height="80" as="geometry" />
        </mxCell>
        <mxCell id="m1kTsd8cJOKcklktA0y1-5" style="edgeStyle=orthogonalEdgeStyle;rounded=1;orthogonalLoop=1;jettySize=auto;html=1;entryX=0.5;entryY=0;entryDx=0;entryDy=0;entryPerimeter=0;shadow=1;" parent="1" source="m1kTsd8cJOKcklktA0y1-2" target="m1kTsd8cJOKcklktA0y1-3" edge="1">
          <mxGeometry relative="1" as="geometry" />
        </mxCell>
        <mxCell id="m1kTsd8cJOKcklktA0y1-2" value="Method 2" style="shape=hexagon;perimeter=hexagonPerimeter2;whiteSpace=wrap;html=1;fixedSize=1;rounded=1;shadow=1;" parent="1" vertex="1">
          <mxGeometry x="420" y="40" width="120" height="80" as="geometry" />
        </mxCell>
        <mxCell id="m1kTsd8cJOKcklktA0y1-14" style="edgeStyle=orthogonalEdgeStyle;rounded=1;orthogonalLoop=1;jettySize=auto;html=1;entryX=1;entryY=0.5;entryDx=0;entryDy=0;fontSize=20;shadow=1;" parent="1" source="m1kTsd8cJOKcklktA0y1-3" target="m1kTsd8cJOKcklktA0y1-9" edge="1">
          <mxGeometry relative="1" as="geometry" />
        </mxCell>
        <mxCell id="m1kTsd8cJOKcklktA0y1-15" style="edgeStyle=orthogonalEdgeStyle;rounded=1;orthogonalLoop=1;jettySize=auto;html=1;entryX=0;entryY=0.5;entryDx=0;entryDy=0;fontSize=20;shadow=1;" parent="1" source="m1kTsd8cJOKcklktA0y1-3" target="m1kTsd8cJOKcklktA0y1-7" edge="1">
          <mxGeometry relative="1" as="geometry" />
        </mxCell>
        <mxCell id="m1kTsd8cJOKcklktA0y1-16" style="edgeStyle=orthogonalEdgeStyle;rounded=1;orthogonalLoop=1;jettySize=auto;html=1;entryX=1;entryY=0.5;entryDx=0;entryDy=0;fontSize=20;shadow=1;" parent="1" source="m1kTsd8cJOKcklktA0y1-3" target="m1kTsd8cJOKcklktA0y1-10" edge="1">
          <mxGeometry relative="1" as="geometry" />
        </mxCell>
        <mxCell id="m1kTsd8cJOKcklktA0y1-17" style="edgeStyle=orthogonalEdgeStyle;rounded=1;orthogonalLoop=1;jettySize=auto;html=1;entryX=0;entryY=0.5;entryDx=0;entryDy=0;fontSize=20;shadow=1;" parent="1" source="m1kTsd8cJOKcklktA0y1-3" target="m1kTsd8cJOKcklktA0y1-8" edge="1">
          <mxGeometry relative="1" as="geometry" />
        </mxCell>
        <mxCell id="m1kTsd8cJOKcklktA0y1-18" style="edgeStyle=orthogonalEdgeStyle;rounded=1;orthogonalLoop=1;jettySize=auto;html=1;entryX=1;entryY=0.5;entryDx=0;entryDy=0;fontSize=20;shadow=1;" parent="1" source="m1kTsd8cJOKcklktA0y1-3" target="m1kTsd8cJOKcklktA0y1-12" edge="1">
          <mxGeometry relative="1" as="geometry" />
        </mxCell>
        <mxCell id="m1kTsd8cJOKcklktA0y1-19" style="edgeStyle=orthogonalEdgeStyle;rounded=1;orthogonalLoop=1;jettySize=auto;html=1;entryX=0;entryY=0.5;entryDx=0;entryDy=0;fontSize=20;shadow=1;" parent="1" source="m1kTsd8cJOKcklktA0y1-3" target="m1kTsd8cJOKcklktA0y1-11" edge="1">
          <mxGeometry relative="1" as="geometry" />
        </mxCell>
        <mxCell id="m1kTsd8cJOKcklktA0y1-20" style="edgeStyle=orthogonalEdgeStyle;rounded=1;orthogonalLoop=1;jettySize=auto;html=1;entryX=0.5;entryY=0;entryDx=0;entryDy=0;fontSize=20;shadow=1;" parent="1" source="m1kTsd8cJOKcklktA0y1-3" target="m1kTsd8cJOKcklktA0y1-13" edge="1">
          <mxGeometry relative="1" as="geometry" />
        </mxCell>
        <mxCell id="m1kTsd8cJOKcklktA0y1-3" value="&lt;b&gt;&lt;font style=&quot;font-size: 20px&quot;&gt;SPV&lt;/font&gt;&lt;/b&gt;" style="strokeWidth=2;html=1;shape=mxgraph.flowchart.terminator;whiteSpace=wrap;rounded=1;shadow=1;" parent="1" vertex="1">
          <mxGeometry x="350" y="160" width="100" height="60" as="geometry" />
        </mxCell>
        <mxCell id="VgCb9QyONVF8mpywNNMw-26" style="edgeStyle=orthogonalEdgeStyle;rounded=1;orthogonalLoop=1;jettySize=auto;html=1;entryX=0;entryY=0.5;entryDx=0;entryDy=0;fontSize=12;shadow=1;" parent="1" source="m1kTsd8cJOKcklktA0y1-7" target="VgCb9QyONVF8mpywNNMw-22" edge="1">
          <mxGeometry relative="1" as="geometry" />
        </mxCell>
        <mxCell id="VgCb9QyONVF8mpywNNMw-27" style="edgeStyle=orthogonalEdgeStyle;rounded=1;orthogonalLoop=1;jettySize=auto;html=1;entryX=0;entryY=0.5;entryDx=0;entryDy=0;fontSize=12;shadow=1;" parent="1" source="m1kTsd8cJOKcklktA0y1-7" target="VgCb9QyONVF8mpywNNMw-20" edge="1">
          <mxGeometry relative="1" as="geometry" />
        </mxCell>
        <mxCell id="VgCb9QyONVF8mpywNNMw-28" style="edgeStyle=orthogonalEdgeStyle;rounded=1;orthogonalLoop=1;jettySize=auto;html=1;entryX=0;entryY=0.5;entryDx=0;entryDy=0;fontSize=12;shadow=1;" parent="1" source="m1kTsd8cJOKcklktA0y1-7" target="VgCb9QyONVF8mpywNNMw-21" edge="1">
          <mxGeometry relative="1" as="geometry" />
        </mxCell>
        <mxCell id="m1kTsd8cJOKcklktA0y1-7" value="&lt;div&gt;Relative&lt;/div&gt;&lt;div&gt;position&lt;/div&gt;" style="ellipse;whiteSpace=wrap;html=1;aspect=fixed;rounded=1;fontSize=12;shadow=1;" parent="1" vertex="1">
          <mxGeometry x="440" y="240" width="80" height="80" as="geometry" />
        </mxCell>
        <mxCell id="VgCb9QyONVF8mpywNNMw-32" style="edgeStyle=orthogonalEdgeStyle;rounded=1;orthogonalLoop=1;jettySize=auto;html=1;entryX=0;entryY=0.5;entryDx=0;entryDy=0;fontSize=12;shadow=1;" parent="1" source="m1kTsd8cJOKcklktA0y1-8" target="VgCb9QyONVF8mpywNNMw-25" edge="1">
          <mxGeometry relative="1" as="geometry" />
        </mxCell>
        <mxCell id="VgCb9QyONVF8mpywNNMw-33" style="edgeStyle=orthogonalEdgeStyle;rounded=1;orthogonalLoop=1;jettySize=auto;html=1;entryX=0;entryY=0.5;entryDx=0;entryDy=0;fontSize=12;shadow=1;" parent="1" source="m1kTsd8cJOKcklktA0y1-8" target="VgCb9QyONVF8mpywNNMw-23" edge="1">
          <mxGeometry relative="1" as="geometry" />
        </mxCell>
        <mxCell id="VgCb9QyONVF8mpywNNMw-34" style="edgeStyle=orthogonalEdgeStyle;rounded=1;orthogonalLoop=1;jettySize=auto;html=1;fontSize=12;shadow=1;" parent="1" source="m1kTsd8cJOKcklktA0y1-8" target="VgCb9QyONVF8mpywNNMw-24" edge="1">
          <mxGeometry relative="1" as="geometry" />
        </mxCell>
        <mxCell id="m1kTsd8cJOKcklktA0y1-8" value="&lt;div&gt;Relative&lt;/div&gt;&lt;div&gt;velocity&lt;/div&gt;" style="ellipse;whiteSpace=wrap;html=1;aspect=fixed;rounded=1;fontSize=12;shadow=1;" parent="1" vertex="1">
          <mxGeometry x="440" y="360" width="80" height="80" as="geometry" />
        </mxCell>
        <mxCell id="VgCb9QyONVF8mpywNNMw-7" style="edgeStyle=orthogonalEdgeStyle;rounded=1;orthogonalLoop=1;jettySize=auto;html=1;entryX=1;entryY=0.5;entryDx=0;entryDy=0;fontSize=12;shadow=1;" parent="1" source="m1kTsd8cJOKcklktA0y1-9" target="VgCb9QyONVF8mpywNNMw-3" edge="1">
          <mxGeometry relative="1" as="geometry" />
        </mxCell>
        <mxCell id="VgCb9QyONVF8mpywNNMw-8" style="edgeStyle=orthogonalEdgeStyle;rounded=1;orthogonalLoop=1;jettySize=auto;html=1;entryX=1;entryY=0.5;entryDx=0;entryDy=0;fontSize=12;shadow=1;" parent="1" source="m1kTsd8cJOKcklktA0y1-9" target="VgCb9QyONVF8mpywNNMw-1" edge="1">
          <mxGeometry relative="1" as="geometry" />
        </mxCell>
        <mxCell id="VgCb9QyONVF8mpywNNMw-9" style="edgeStyle=orthogonalEdgeStyle;rounded=1;orthogonalLoop=1;jettySize=auto;html=1;entryX=1;entryY=0.5;entryDx=0;entryDy=0;fontSize=12;shadow=1;" parent="1" source="m1kTsd8cJOKcklktA0y1-9" target="VgCb9QyONVF8mpywNNMw-2" edge="1">
          <mxGeometry relative="1" as="geometry" />
        </mxCell>
        <mxCell id="m1kTsd8cJOKcklktA0y1-9" value="&lt;span style=&quot;font-size: 12px&quot;&gt;Position&lt;/span&gt;" style="ellipse;whiteSpace=wrap;html=1;aspect=fixed;rounded=1;fontSize=20;shadow=1;" parent="1" vertex="1">
          <mxGeometry x="280" y="240" width="80" height="80" as="geometry" />
        </mxCell>
        <mxCell id="VgCb9QyONVF8mpywNNMw-29" style="edgeStyle=orthogonalEdgeStyle;rounded=1;orthogonalLoop=1;jettySize=auto;html=1;entryX=1;entryY=0.5;entryDx=0;entryDy=0;fontSize=12;shadow=1;" parent="1" source="m1kTsd8cJOKcklktA0y1-10" target="VgCb9QyONVF8mpywNNMw-12" edge="1">
          <mxGeometry relative="1" as="geometry" />
        </mxCell>
        <mxCell id="VgCb9QyONVF8mpywNNMw-30" style="edgeStyle=orthogonalEdgeStyle;rounded=1;orthogonalLoop=1;jettySize=auto;html=1;entryX=1;entryY=0.5;entryDx=0;entryDy=0;fontSize=12;shadow=1;" parent="1" source="m1kTsd8cJOKcklktA0y1-10" target="VgCb9QyONVF8mpywNNMw-10" edge="1">
          <mxGeometry relative="1" as="geometry" />
        </mxCell>
        <mxCell id="VgCb9QyONVF8mpywNNMw-31" style="edgeStyle=orthogonalEdgeStyle;rounded=1;orthogonalLoop=1;jettySize=auto;html=1;entryX=1;entryY=0.5;entryDx=0;entryDy=0;fontSize=12;shadow=1;" parent="1" source="m1kTsd8cJOKcklktA0y1-10" target="VgCb9QyONVF8mpywNNMw-11" edge="1">
          <mxGeometry relative="1" as="geometry" />
        </mxCell>
        <mxCell id="m1kTsd8cJOKcklktA0y1-10" value="&lt;font style=&quot;font-size: 12px&quot;&gt;Velocity&lt;/font&gt;" style="ellipse;whiteSpace=wrap;html=1;aspect=fixed;rounded=1;fontSize=20;shadow=1;" parent="1" vertex="1">
          <mxGeometry x="280" y="360" width="80" height="80" as="geometry" />
        </mxCell>
        <mxCell id="VgCb9QyONVF8mpywNNMw-48" style="edgeStyle=orthogonalEdgeStyle;rounded=1;orthogonalLoop=1;jettySize=auto;html=1;entryX=0;entryY=0.5;entryDx=0;entryDy=0;fontSize=12;shadow=1;" parent="1" source="m1kTsd8cJOKcklktA0y1-11" target="VgCb9QyONVF8mpywNNMw-41" edge="1">
          <mxGeometry relative="1" as="geometry" />
        </mxCell>
        <mxCell id="VgCb9QyONVF8mpywNNMw-49" style="edgeStyle=orthogonalEdgeStyle;rounded=1;orthogonalLoop=1;jettySize=auto;html=1;fontSize=12;shadow=1;" parent="1" source="m1kTsd8cJOKcklktA0y1-11" target="VgCb9QyONVF8mpywNNMw-39" edge="1">
          <mxGeometry relative="1" as="geometry" />
        </mxCell>
        <mxCell id="VgCb9QyONVF8mpywNNMw-50" style="edgeStyle=orthogonalEdgeStyle;rounded=1;orthogonalLoop=1;jettySize=auto;html=1;fontSize=12;shadow=1;" parent="1" source="m1kTsd8cJOKcklktA0y1-11" target="VgCb9QyONVF8mpywNNMw-40" edge="1">
          <mxGeometry relative="1" as="geometry" />
        </mxCell>
        <mxCell id="VgCb9QyONVF8mpywNNMw-51" style="edgeStyle=orthogonalEdgeStyle;rounded=1;orthogonalLoop=1;jettySize=auto;html=1;entryX=0;entryY=0.5;entryDx=0;entryDy=0;fontSize=12;shadow=1;" parent="1" source="m1kTsd8cJOKcklktA0y1-11" target="VgCb9QyONVF8mpywNNMw-44" edge="1">
          <mxGeometry relative="1" as="geometry" />
        </mxCell>
        <mxCell id="VgCb9QyONVF8mpywNNMw-52" style="edgeStyle=orthogonalEdgeStyle;rounded=1;orthogonalLoop=1;jettySize=auto;html=1;entryX=0;entryY=0.5;entryDx=0;entryDy=0;fontSize=12;shadow=1;" parent="1" source="m1kTsd8cJOKcklktA0y1-11" target="VgCb9QyONVF8mpywNNMw-42" edge="1">
          <mxGeometry relative="1" as="geometry" />
        </mxCell>
        <mxCell id="VgCb9QyONVF8mpywNNMw-53" style="edgeStyle=orthogonalEdgeStyle;rounded=1;orthogonalLoop=1;jettySize=auto;html=1;entryX=0;entryY=0.5;entryDx=0;entryDy=0;fontSize=12;shadow=1;" parent="1" source="m1kTsd8cJOKcklktA0y1-11" target="VgCb9QyONVF8mpywNNMw-43" edge="1">
          <mxGeometry relative="1" as="geometry" />
        </mxCell>
        <mxCell id="VgCb9QyONVF8mpywNNMw-54" style="edgeStyle=orthogonalEdgeStyle;rounded=1;orthogonalLoop=1;jettySize=auto;html=1;entryX=0;entryY=0.5;entryDx=0;entryDy=0;fontSize=12;shadow=1;" parent="1" source="m1kTsd8cJOKcklktA0y1-11" target="VgCb9QyONVF8mpywNNMw-47" edge="1">
          <mxGeometry relative="1" as="geometry" />
        </mxCell>
        <mxCell id="VgCb9QyONVF8mpywNNMw-55" style="edgeStyle=orthogonalEdgeStyle;rounded=1;orthogonalLoop=1;jettySize=auto;html=1;entryX=0;entryY=0.5;entryDx=0;entryDy=0;fontSize=12;shadow=1;" parent="1" source="m1kTsd8cJOKcklktA0y1-11" target="VgCb9QyONVF8mpywNNMw-45" edge="1">
          <mxGeometry relative="1" as="geometry" />
        </mxCell>
        <mxCell id="VgCb9QyONVF8mpywNNMw-56" style="edgeStyle=orthogonalEdgeStyle;rounded=1;orthogonalLoop=1;jettySize=auto;html=1;entryX=0;entryY=0.5;entryDx=0;entryDy=0;fontSize=12;shadow=1;" parent="1" source="m1kTsd8cJOKcklktA0y1-11" target="VgCb9QyONVF8mpywNNMw-46" edge="1">
          <mxGeometry relative="1" as="geometry" />
        </mxCell>
        <mxCell id="m1kTsd8cJOKcklktA0y1-11" value="&lt;div&gt;&lt;div&gt;Rotation&lt;/div&gt;&lt;div&gt;base&lt;/div&gt;&lt;/div&gt;" style="ellipse;whiteSpace=wrap;html=1;aspect=fixed;rounded=1;fontSize=12;shadow=1;" parent="1" vertex="1">
          <mxGeometry x="440" y="480" width="80" height="80" as="geometry" />
        </mxCell>
        <mxCell id="VgCb9QyONVF8mpywNNMw-36" style="edgeStyle=orthogonalEdgeStyle;rounded=1;orthogonalLoop=1;jettySize=auto;html=1;entryX=1;entryY=0.5;entryDx=0;entryDy=0;fontSize=12;shadow=1;" parent="1" source="m1kTsd8cJOKcklktA0y1-12" target="VgCb9QyONVF8mpywNNMw-35" edge="1">
          <mxGeometry relative="1" as="geometry" />
        </mxCell>
        <mxCell id="m1kTsd8cJOKcklktA0y1-12" value="&lt;font style=&quot;font-size: 12px&quot;&gt;Passthrough&lt;/font&gt;" style="ellipse;whiteSpace=wrap;html=1;aspect=fixed;rounded=1;fontSize=20;shadow=1;" parent="1" vertex="1">
          <mxGeometry x="280" y="480" width="80" height="80" as="geometry" />
        </mxCell>
        <mxCell id="VgCb9QyONVF8mpywNNMw-38" style="edgeStyle=orthogonalEdgeStyle;rounded=1;orthogonalLoop=1;jettySize=auto;html=1;fontSize=12;shadow=1;" parent="1" source="m1kTsd8cJOKcklktA0y1-13" target="VgCb9QyONVF8mpywNNMw-37" edge="1">
          <mxGeometry relative="1" as="geometry" />
        </mxCell>
        <mxCell id="m1kTsd8cJOKcklktA0y1-13" value="&lt;font style=&quot;font-size: 12px&quot;&gt;Debug&lt;/font&gt;" style="ellipse;whiteSpace=wrap;html=1;aspect=fixed;rounded=1;fontSize=20;shadow=1;" parent="1" vertex="1">
          <mxGeometry x="360" y="600" width="80" height="80" as="geometry" />
        </mxCell>
        <mxCell id="m1kTsd8cJOKcklktA0y1-22" style="edgeStyle=orthogonalEdgeStyle;rounded=1;orthogonalLoop=1;jettySize=auto;html=1;entryX=0;entryY=0.5;entryDx=0;entryDy=0;entryPerimeter=0;fontSize=12;shadow=1;" parent="1" source="m1kTsd8cJOKcklktA0y1-21" target="m1kTsd8cJOKcklktA0y1-3" edge="1">
          <mxGeometry relative="1" as="geometry" />
        </mxCell>
        <mxCell id="m1kTsd8cJOKcklktA0y1-21" value="Name" style="rounded=1;whiteSpace=wrap;html=1;shadow=1;" parent="1" vertex="1">
          <mxGeometry x="160" y="170" width="120" height="40" as="geometry" />
        </mxCell>
        <mxCell id="m1kTsd8cJOKcklktA0y1-24" style="edgeStyle=orthogonalEdgeStyle;rounded=1;orthogonalLoop=1;jettySize=auto;html=1;entryX=1;entryY=0.5;entryDx=0;entryDy=0;entryPerimeter=0;fontSize=12;shadow=1;" parent="1" source="m1kTsd8cJOKcklktA0y1-23" target="m1kTsd8cJOKcklktA0y1-3" edge="1">
          <mxGeometry relative="1" as="geometry" />
        </mxCell>
        <mxCell id="m1kTsd8cJOKcklktA0y1-23" value="Mass" style="rounded=1;whiteSpace=wrap;html=1;shadow=1;" parent="1" vertex="1">
          <mxGeometry x="520" y="170" width="120" height="40" as="geometry" />
        </mxCell>
        <mxCell id="VgCb9QyONVF8mpywNNMw-1" value="y" style="rounded=1;whiteSpace=wrap;html=1;shadow=1;fontStyle=2;fillColor=#00FF00;" parent="1" vertex="1">
          <mxGeometry x="160" y="265" width="80" height="30" as="geometry" />
        </mxCell>
        <mxCell id="VgCb9QyONVF8mpywNNMw-2" value="z" style="rounded=1;whiteSpace=wrap;html=1;shadow=1;fontStyle=2;fillColor=#0000FF;" parent="1" vertex="1">
          <mxGeometry x="160" y="300" width="80" height="30" as="geometry" />
        </mxCell>
        <mxCell id="VgCb9QyONVF8mpywNNMw-3" value="x" style="rounded=1;whiteSpace=wrap;html=1;shadow=1;fontStyle=2;fillColor=#FF0000;" parent="1" vertex="1">
          <mxGeometry x="160" y="230" width="80" height="30" as="geometry" />
        </mxCell>
        <mxCell id="VgCb9QyONVF8mpywNNMw-10" value="y" style="rounded=1;whiteSpace=wrap;html=1;shadow=1;fontStyle=2;fillColor=#00FF00;" parent="1" vertex="1">
          <mxGeometry x="160" y="385" width="80" height="30" as="geometry" />
        </mxCell>
        <mxCell id="VgCb9QyONVF8mpywNNMw-11" value="z" style="rounded=1;whiteSpace=wrap;html=1;shadow=1;fontStyle=2;fillColor=#0000FF;" parent="1" vertex="1">
          <mxGeometry x="160" y="420" width="80" height="30" as="geometry" />
        </mxCell>
        <mxCell id="VgCb9QyONVF8mpywNNMw-12" value="x" style="rounded=1;whiteSpace=wrap;html=1;shadow=1;fontStyle=2;fillColor=#FF0000;" parent="1" vertex="1">
          <mxGeometry x="160" y="350" width="80" height="30" as="geometry" />
        </mxCell>
        <mxCell id="VgCb9QyONVF8mpywNNMw-20" value="y" style="rounded=1;whiteSpace=wrap;html=1;shadow=1;fontStyle=2;fillColor=#00FF00;" parent="1" vertex="1">
          <mxGeometry x="560" y="265" width="80" height="30" as="geometry" />
        </mxCell>
        <mxCell id="VgCb9QyONVF8mpywNNMw-21" value="z" style="rounded=1;whiteSpace=wrap;html=1;shadow=1;fontStyle=2;fillColor=#0000FF;" parent="1" vertex="1">
          <mxGeometry x="560" y="300" width="80" height="30" as="geometry" />
        </mxCell>
        <mxCell id="VgCb9QyONVF8mpywNNMw-22" value="x" style="rounded=1;whiteSpace=wrap;html=1;shadow=1;fontStyle=2;fillColor=#FF0000;" parent="1" vertex="1">
          <mxGeometry x="560" y="230" width="80" height="30" as="geometry" />
        </mxCell>
        <mxCell id="VgCb9QyONVF8mpywNNMw-23" value="y" style="rounded=1;whiteSpace=wrap;html=1;shadow=1;fontStyle=2;fillColor=#00FF00;" parent="1" vertex="1">
          <mxGeometry x="560" y="385" width="80" height="30" as="geometry" />
        </mxCell>
        <mxCell id="VgCb9QyONVF8mpywNNMw-24" value="z" style="rounded=1;whiteSpace=wrap;html=1;shadow=1;fontStyle=2;fillColor=#0000FF;" parent="1" vertex="1">
          <mxGeometry x="560" y="420" width="80" height="30" as="geometry" />
        </mxCell>
        <mxCell id="VgCb9QyONVF8mpywNNMw-25" value="x" style="rounded=1;whiteSpace=wrap;html=1;shadow=1;fontStyle=2;fillColor=#FF0000;" parent="1" vertex="1">
          <mxGeometry x="560" y="350" width="80" height="30" as="geometry" />
        </mxCell>
        <mxCell id="VgCb9QyONVF8mpywNNMw-35" value="Mass" style="rounded=1;whiteSpace=wrap;html=1;shadow=1;" parent="1" vertex="1">
          <mxGeometry x="160" y="505" width="80" height="30" as="geometry" />
        </mxCell>
        <mxCell id="VgCb9QyONVF8mpywNNMw-37" value="ν" style="rounded=1;whiteSpace=wrap;html=1;shadow=1;fontStyle=2" parent="1" vertex="1">
          <mxGeometry x="360" y="720" width="80" height="30" as="geometry" />
        </mxCell>
        <mxCell id="VgCb9QyONVF8mpywNNMw-39" value="x&lt;sub&gt;2&lt;/sub&gt;" style="rounded=1;whiteSpace=wrap;html=1;shadow=1;fontStyle=2" parent="1" vertex="1">
          <mxGeometry x="560" y="505" width="80" height="30" as="geometry" />
        </mxCell>
        <mxCell id="VgCb9QyONVF8mpywNNMw-40" value="x&lt;sub&gt;3&lt;/sub&gt;" style="rounded=1;whiteSpace=wrap;html=1;shadow=1;fontStyle=2" parent="1" vertex="1">
          <mxGeometry x="560" y="540" width="80" height="30" as="geometry" />
        </mxCell>
        <mxCell id="VgCb9QyONVF8mpywNNMw-41" value="x&lt;sub&gt;1&lt;/sub&gt;" style="rounded=1;whiteSpace=wrap;html=1;shadow=1;fontStyle=2" parent="1" vertex="1">
          <mxGeometry x="560" y="470" width="80" height="30" as="geometry" />
        </mxCell>
        <mxCell id="VgCb9QyONVF8mpywNNMw-42" value="y&lt;sub&gt;2&lt;/sub&gt;" style="rounded=1;whiteSpace=wrap;html=1;shadow=1;fontStyle=2" parent="1" vertex="1">
          <mxGeometry x="560" y="615" width="80" height="30" as="geometry" />
        </mxCell>
        <mxCell id="VgCb9QyONVF8mpywNNMw-43" value="y&lt;sub&gt;3&lt;/sub&gt;" style="rounded=1;whiteSpace=wrap;html=1;shadow=1;fontStyle=2" parent="1" vertex="1">
          <mxGeometry x="560" y="650" width="80" height="30" as="geometry" />
        </mxCell>
        <mxCell id="VgCb9QyONVF8mpywNNMw-44" value="y&lt;sub&gt;1&lt;/sub&gt;" style="rounded=1;whiteSpace=wrap;html=1;shadow=1;fontStyle=2" parent="1" vertex="1">
          <mxGeometry x="560" y="580" width="80" height="30" as="geometry" />
        </mxCell>
        <mxCell id="VgCb9QyONVF8mpywNNMw-45" value="z&lt;sub&gt;2&lt;/sub&gt;" style="rounded=1;whiteSpace=wrap;html=1;shadow=1;fontStyle=2" parent="1" vertex="1">
          <mxGeometry x="560" y="725" width="80" height="30" as="geometry" />
        </mxCell>
        <mxCell id="VgCb9QyONVF8mpywNNMw-46" value="z&lt;sub&gt;3&lt;/sub&gt;" style="rounded=1;whiteSpace=wrap;html=1;shadow=1;fontStyle=2" parent="1" vertex="1">
          <mxGeometry x="560" y="760" width="80" height="30" as="geometry" />
        </mxCell>
        <mxCell id="VgCb9QyONVF8mpywNNMw-47" value="z&lt;sub&gt;1&lt;/sub&gt;" style="rounded=1;whiteSpace=wrap;html=1;shadow=1;fontStyle=2" parent="1" vertex="1">
          <mxGeometry x="560" y="690" width="80" height="30" as="geometry" />
        </mxCell>
      </root>
    </mxGraphModel>
  </diagram>
</mxfile>
